<svg id="Layer_1" data-name="Layer 1" xmlns="http://www.w3.org/2000/svg" viewBox="0 0 26.07 26.63"><defs><style>.cls-1{fill:#f96332;}</style></defs><title>arrow_right</title><path class="cls-1" d="M698.36,767.11a1,1,0,0,0,0-.13,1,1,0,0,0,0-.22h0a1,1,0,0,0-.29-0.71l-12-12a1,1,0,0,0-1.41,0,1.15,1.15,0,0,0,0,1.54L695,766H673.37a1,1,0,0,0,0,2h21.72l-10.41,10.79a0.93,0.93,0,0,0,0,1.35,1,1,0,0,0,.69.25,1,1,0,0,0,.72-0.32l12-12.57A1,1,0,0,0,698.36,767.11Z" transform="translate(-672.37 -753.76)"/></svg>