<svg id="icon-youtube" data-name="icon-youtube" xmlns="http://www.w3.org/2000/svg" viewBox="0 0 12 8.57"><title>icon-youtube</title><path d="M211.5,88.29a1.52,1.52,0,0,1-1.29,1.21,60.39,60.39,0,0,1-9,0,1.54,1.54,0,0,1-1.3-1.21,13.59,13.59,0,0,1-.21-2.91,13.17,13.17,0,0,1,.21-2.91,1.53,1.53,0,0,1,1.29-1.21,60.39,60.39,0,0,1,9,0,1.54,1.54,0,0,1,1.3,1.21,13.59,13.59,0,0,1,.21,2.91A13.17,13.17,0,0,1,211.5,88.29ZM208.09,85l-3.43-2.14a0.42,0.42,0,0,0-.44,0,0.43,0.43,0,0,0-.22.38v4.29a0.43,0.43,0,0,0,.22.38,0.45,0.45,0,0,0,.21.05,0.39,0.39,0,0,0,.23-0.07l3.43-2.14A0.43,0.43,0,0,0,208.09,85Z" transform="translate(-199.71 -81.09)"/></svg>
