<svg id="icon-rss" data-name="icon-rss" xmlns="http://www.w3.org/2000/svg" viewBox="0 0 9.43 9.43"><title>icon-rss</title><path d="M224,89.53a0.41,0.41,0,0,1-.31.13h-1a0.43,0.43,0,0,1-.43-0.4A7.67,7.67,0,0,0,215.11,82a0.42,0.42,0,0,1-.4-0.42v-1a0.41,0.41,0,0,1,.13-0.31,0.42,0.42,0,0,1,.29-0.12h0a9.52,9.52,0,0,1,9,9A0.41,0.41,0,0,1,224,89.53Zm-3.42,0a0.41,0.41,0,0,1-.31.14h-0.9a0.42,0.42,0,0,1-.42-0.39,4.29,4.29,0,0,0-3.86-3.86,0.42,0.42,0,0,1-.39-0.42v-0.9a0.43,0.43,0,0,1,.43-0.43h0a6.06,6.06,0,0,1,5.54,5.54A0.43,0.43,0,0,1,220.6,89.53Zm-4.6.14a1.29,1.29,0,1,1,1.29-1.29A1.29,1.29,0,0,1,216,89.67Z" transform="translate(-214.71 -80.23)"/></svg>
