<svg id="Youtube" xmlns="http://www.w3.org/2000/svg" viewBox="0 0 50 50"><title>yt_be</title><path d="M426.77,169.38l-10-6.25a1.11,1.11,0,0,0-1.2,0,1.2,1.2,0,0,0-.57,1.09v12.5a1.2,1.2,0,0,0,.57,1.09,1.18,1.18,0,0,0,.57.16,1.09,1.09,0,0,0,.65-0.2l10-6.25A1.24,1.24,0,0,0,426.77,169.38Z" transform="translate(-394.86 -145.43)"/><path d="M419.86,145.43a25,25,0,1,0,25,25A25,25,0,0,0,419.86,145.43Zm16.88,33.48a4.43,4.43,0,0,1-3.77,3.54,117.21,117.21,0,0,1-13.11.49,117.21,117.21,0,0,1-13.11-.49,4.48,4.48,0,0,1-3.79-3.54,39.64,39.64,0,0,1-.61-8.48A38.4,38.4,0,0,1,403,162a4.46,4.46,0,0,1,3.77-3.54,117.22,117.22,0,0,1,13.11-.49,117.22,117.22,0,0,1,13.11.49,4.48,4.48,0,0,1,3.79,3.54,39.63,39.63,0,0,1,.61,8.48A38.4,38.4,0,0,1,436.73,178.91Z" transform="translate(-394.86 -145.43)"/></svg>